<?xml version="1.0" encoding="UTF-8"?>
<svg xmlns="http://www.w3.org/2000/svg" xmlns:xlink="http://www.w3.org/1999/xlink" width="15pt" height="15pt" viewBox="0 0 15 15" version="1.1">
<g id="surface1">
<path style=" stroke:none;fill-rule:nonzero;fill:rgb(0%,0%,0%);fill-opacity:1;" d="M 13.085938 4.320312 C 13.09375 4.453125 13.09375 4.582031 13.09375 4.714844 C 13.09375 8.664062 10.085938 13.210938 4.589844 13.210938 C 2.898438 13.210938 1.320312 12.722656 0 11.871094 C 0.242188 11.902344 0.472656 11.910156 0.722656 11.910156 C 2.121094 11.910156 3.40625 11.4375 4.429688 10.632812 C 3.117188 10.605469 2.019531 9.746094 1.640625 8.5625 C 1.824219 8.585938 2.007812 8.605469 2.199219 8.605469 C 2.46875 8.605469 2.738281 8.570312 2.992188 8.503906 C 1.617188 8.230469 0.59375 7.023438 0.59375 5.570312 L 0.59375 5.535156 C 0.988281 5.757812 1.453125 5.894531 1.945312 5.910156 C 1.140625 5.375 0.613281 4.460938 0.613281 3.421875 C 0.613281 2.867188 0.757812 2.359375 1.019531 1.914062 C 2.488281 3.726562 4.699219 4.914062 7.179688 5.042969 C 7.132812 4.824219 7.109375 4.589844 7.109375 4.359375 C 7.109375 2.710938 8.4375 1.371094 10.097656 1.371094 C 10.957031 1.371094 11.734375 1.726562 12.277344 2.3125 C 12.957031 2.1875 13.601562 1.933594 14.175781 1.589844 C 13.953125 2.285156 13.480469 2.867188 12.859375 3.238281 C 13.464844 3.175781 14.046875 3.007812 14.582031 2.777344 C 14.175781 3.367188 13.667969 3.894531 13.085938 4.320312 Z M 13.085938 4.320312 "/>
</g>
</svg>
